<?xml version="1.0" encoding="utf-8"?>
<!-- Generator: Adobe Illustrator 18.1.1, SVG Export Plug-In . SVG Version: 6.00 Build 0)  -->
<!DOCTYPE svg PUBLIC "-//W3C//DTD SVG 1.1//EN" "http://www.w3.org/Graphics/SVG/1.1/DTD/svg11.dtd">
<svg version="1.1" id="Layer_1" xmlns="http://www.w3.org/2000/svg" xmlns:xlink="http://www.w3.org/1999/xlink" x="0px" y="0px"
	 viewBox="5.1 276.9 500 277" enable-background="new 5.1 276.9 499.7 276.5" width="500px" height="277px" xml:space="preserve">
<g>
	<g>
		<path fill="#FFFFFF" d="M40,504.1c3.2-4.9,6.1-9.5,8.9-13.8c2.8-4.3,4.3-6.1,6.3-9.5c2-3.4,3.2-5.5,3.6-6.9
			c0.4-1.6,0.2-3.2-0.4-5.1c-0.6-1.8-1.8-3.6-3-5.1c-1.4-1.6-3-3.2-4.5-4.5c-1.8-1.4-3.4-2.4-5.1-3c-1.8-0.6-2.8-0.6-4.2-0.4
			c-1.4,0.2-2.4,1-3,2.6c-0.6,1.2-1.4,3.4-2.8,6.3c-1.4,3-2.2,4.7-4,8.9c-1.8,4.3-3.8,8.9-5.9,14c-2,5.1-4,10.5-5.9,16
			c-2,5.5-14,37.5-14.8,42.7c-0.2,2,0,3.6,0.8,4.9c0.8,1.2,1.2,1.8,2.4,2c1.2,0.4,2,0.2,3.2-0.4c1.2-0.6,2.2-2.4,3-3.8
			c1-2,14-26.1,16.8-30.6C33.7,513.8,36.6,509.1,40,504.1"/>
		<path fill="#FFFFFF" d="M95.5,472.3c1.8-4.3,2.8-8.7,2.8-12.8c0-4.3-1.2-8.3-3.4-11.7c-2.2-3.4-5.7-6.3-10.5-8.5
			c-4.7-2.2-11.1-3.4-18.8-3.4s-14.8,1-20.9,3s-11.5,4.5-16,7.7c-4.5,3.2-8.5,6.5-11.5,10.3c-3.2,3.8-5.5,7.3-7.3,10.9
			c-1.8,3.6-3,6.7-3.4,9.5s-0.2,4.9,0.6,6.3c0.6,0.8,1.4,1.4,2.6,1.8c1.2,0.2,2.6,0.2,4,0s3-0.6,4.3-1.4c1.4-0.6,2.8-1.4,4-2.4
			c1.2-1,2-2,2.4-3.2c0.6-1.2,0.6-2.4,0-3.6c-1-2.6-1-5.7,0.2-9.3c1.2-3.8,3.4-7.1,6.5-10.7c3.2-3.4,7.3-6.3,12.6-8.7
			c5.1-2.4,11.3-3.6,18.4-3.6c4.7,0,8.1,1.2,10.5,3.6c2.4,2.4,3.8,5.3,4.3,8.9c0.6,3.6,0.4,7.5-0.4,11.7c-0.8,4.2-2.2,7.9-4,11.7
			c-1.8,3.6-4,6.5-6.5,8.9c-2.4,2.4-4.9,3.6-7.5,3.6c-2,0-3.6,0.4-4.5,1.2c-1,0.8-1.8,1.6-1.8,2.6c-0.2,1,0.2,1.8,1,2.6
			c0.8,0.8,2,1.2,3.6,1.2H57c3.4,0,5.9,1.2,7.3,3.4c1.4,2.2,2,4.9,1.6,8.5c-0.4,3.4-1.4,7.1-3.2,11.1c-1.8,4-4.3,7.5-7.5,11.1
			c-3.2,3.4-6.9,6.1-11.3,8.5c-4.3,2.2-9.1,3.4-14.2,3.4c-1.4,0-2.8,0.4-3.6,1.2c-1,0.8-1.6,1.8-1.6,2.8c-0.2,1,0.2,1.8,1.2,2.8
			c1,0.8,2.6,1.2,4.9,1.2c7.3,0,14-1.2,20.4-3.6c6.3-2.4,11.9-5.3,16.6-8.9c4.7-3.6,8.7-7.7,11.7-12.3c3.2-4.5,5.1-8.9,5.9-13
			c1-4.3,0.6-8.3-0.8-11.9c-1.4-3.6-4.3-6.3-8.5-8.5c4.5-2.4,8.7-5.3,12.1-9.3C91,480.6,93.5,476.5,95.5,472.3"/>
		<path fill="#FFFFFF" d="M486.4,519.2l-3,8.1c-1.4,2.4-3,4.3-4.7,5.7c-2,1.4-4,2.2-6.3,2.2c-1.4,0-2.6-0.6-3.4-1.8
			c-0.8-1.2-1.2-2.6-1.2-4.2c0-1.6,0.6-2.8,1.6-4.2c1-1.2,2.4-1.8,4.5-1.8s3.6-0.8,4.3-2.2s1-3.2,0.6-4.9c-0.4-1.8-1.2-3.6-2.6-5.3
			c-1.4-1.6-3-2.8-4.9-3.2c1.2-2,2.2-4,3.2-5.9c1-2,2-3.6,3-5.1c1-1.8,2-3.6,3-5.1c2.2,2.6,3.6,5.3,4.7,8.5c1,3.2,1.6,6.3,1.8,9.5
			C487.2,513,487,516.2,486.4,519.2 M302.4,519.2c-0.6,3.2-1.6,5.7-3,8.1c-1.4,2.4-3,4.3-4.7,5.7c-2,1.4-4,2.2-6.3,2.2
			c-1.4,0-2.6-0.6-3.4-1.8s-1.2-2.6-1.2-4.2c0-1.6,0.6-2.8,1.6-4.2c7.5-11.5,4-17,2-17.4c1.2-2,2.2-4,3.2-5.9c1-2,2-3.6,3-5.1
			c1-1.8,2-3.6,3-5.1c2.2,2.6,3.6,5.3,4.7,8.5c1,3.2,1.6,6.3,1.8,9.5C303.2,513,303,516.2,302.4,519.2 M256.4,502.6
			c-3.4,9.3-7.1,12.6-7.1,12.6c-1.2-2-0.8-16.4,4.7-22.3c0.8-1,1.8-2,3-2C258.4,490.5,259.9,493.1,256.4,502.6 M162.1,501.8
			c2-3,4-5.7,6.1-8.1c2.2-2.4,4.2-4.3,6.3-5.7c2-1.4,4-2.2,5.7-2.2c2.2,0,3.4,1,4,3c0.4,2,0.2,4.3-0.8,6.9c-1,2.6-2.6,5.1-4.9,7.9
			c-2.4,2.6-5.1,4.5-8.5,5.9c-2.6,1-4.9,1.6-7.1,1.8c-2.2,0.2-4.2,0.2-5.9-0.2C158.6,507.7,160.1,504.7,162.1,501.8 M383.7,501.8
			c2-3,4-5.7,6.1-8.1c2.2-2.4,4.2-4.3,6.3-5.7c2.2-1.4,4-2.2,5.7-2.2c2.2,0,3.4,1,4,3c0.4,2,0.2,4.3-0.8,6.9c-1,2.6-2.6,5.3-4.9,7.9
			c-2.4,2.6-5.1,4.5-8.5,5.9c-2.6,1-4.9,1.6-7.1,1.8c-2.2,0.2-4.2,0.2-5.9-0.2C379.9,507.7,381.7,504.7,383.7,501.8 M502.4,497.4
			c-0.4-1.8-1-3.4-1.8-4.9c-0.6-1.6-1.2-3.2-1.6-4.5c-0.4-1.4-0.8-2.6-0.8-3.8c-0.2-1.2,0-2,0.4-2.8c0.6-1.2,0.6-3-0.2-5.1
			s-2-4-3.6-5.7c-1.6-1.6-3.2-2.6-5.1-3.2c-1.8-0.4-3.4,0.4-4.5,2.6c-1.8,3.2-3.8,6.5-5.9,9.9c-2.2,3.6-4.3,6.9-6.5,10.7
			c-2.2,3.6-4.5,7.3-6.7,11.1c-2.2,3.8-4.3,7.5-6.1,11.3c-0.4,0.8-2.2,4.9-3,6.5c-1.4,2.4-2.8,4.7-4.3,6.9c-1.6,2.2-3.4,4-5.3,5.5
			c-1.8,1.6-3.8,2.4-5.7,2.6c-1.4,0.2-2-0.2-2-1.4s0.4-2.6,1.2-4.3c0.8-1.8,2-4,3.2-6.3c1.4-2.4,2.8-4.7,4.2-7.1
			c1.4-2.4,2.6-4.7,3.8-6.9c1.2-2.2,2-4.2,2.4-5.7c0.4-1.2,0.4-2.4,0.2-3.6c-0.2-1.2-0.8-2.4-1.4-3.4c-0.6-1-1.4-2-2.4-2.8
			c-1-0.8-2-1.4-3.2-2c-2.6-1.8-4.5-3.4-6.3-4.5c-1.8-1.2-3.2-2.2-4-3.2c-1-1-1.4-2.2-1.6-3.4c0-1.2,0.4-2.8,1.4-4.5
			c0.8-1.8,1-3.2,0.4-4.3c-0.4-1.2-1.2-2-2.4-2.4c-0.2,0-0.4-0.2-0.8-0.2c-0.2,0-0.4,0-0.6,0c-3.4,0-6.1,0.6-7.5,3.4
			c-1.2,2.4-1,5.7,0.8,9.3c-0.2,0.4-0.4,1.2-0.8,2c-0.6,1.4-1.2,3.2-2.2,5.1c-0.8,2-1.8,4.2-2.8,6.7c-1,2.4-2,4.7-3,6.9
			c-1,2.2-2,4.3-2.8,6.3c-0.4,0.8-1.8,3.4-2.2,4.3c-1,2-2.2,4.3-4,6.9s-4,5.1-6.5,7.5c-2.8,2.4-5.9,4.3-9.5,5.9
			c-3.6,1.6-7.7,2.4-12.3,2.4c-2.2,0-3.8-0.4-4.7-1.4c-1.2-1-2-2.2-2.4-3.8c-0.4-1.6-0.4-3.6,0-5.7c0.4-2.2,1-4.3,1.8-6.7
			c2.2,0.4,4.9,0.6,7.9,0.6c3.2,0,6.7-0.8,10.9-2.4c3.2-1.2,6.1-3,8.9-5.3c2.8-2.4,5.1-4.9,7.1-7.9c2-3,3.4-5.9,4.2-9.1
			c0.8-3.2,0.8-5.9,0-8.5c-0.8-2.6-2.4-4.5-4.9-6.3c-2.6-1.6-6.1-2.4-10.9-2.4c-7.3,0-13.6,1.6-19.2,4.9s-10.1,7.3-13.4,12.5
			c-5.5,8.3-7.9,18.2-8.3,18.8c-0.8,2-1.8,4.2-3.2,6.9c-1.4,2.6-2.8,5.1-4.3,7.5c-1.6,2.4-3.4,4.2-5.3,5.7s-3.8,2-5.7,1.8
			c-1.6-0.4-2.4-1.6-2.4-3.6c0-2,0.6-4.7,1.8-8.1c1.2-3.4,2.8-7.1,4.9-11.3s4.5-8.5,7.1-13c2.6-4.5,5.3-9.1,8.1-13.6
			c2.2-3.4,4.5-7.7,6.7-11.3l2.8-0.6c3.2-0.6,6.1-1.2,9.1-1.8c3-0.6,23.3-4.5,25.7-4.9c2.4-0.4,4.3-1,6.1-1.4c1.8-0.4,3-0.6,3.6-1
			c1.2-0.4,2.2-1.4,3.2-2.6c1-1.2,1.8-2.8,2.4-4.3s1.2-3.2,1.4-4.9c0.2-1.6,0.4-3.2,0.2-4.3c-0.2-1.2-0.6-2-1.4-2.6
			c-0.8-0.6-1.8-0.4-3,0.2c-4,2.2-36,10.7-40.5,12.1c0.2-0.4,0.4-0.8,0.6-1.2c1.2-2,2-3.8,2.8-5.1c0.8-1.4,1.2-2.6,1.4-3.2
			c0.4-1.6,0.4-3.4-0.2-5.1s-1.4-3.6-2.4-5.3c-1-1.6-2.4-3.2-3.8-4.5s-3-2.4-4.3-3.2s-2.8-1-4.2-0.6c-1.4,0.2-2.4,1.2-3.2,2.6
			c-0.4,0.8-1.2,2-2.2,3.8c-1,1.8-2.2,4-3.4,6.7c-1.4,2.6-2.8,5.5-4.5,8.9c-1.6,3.4-3.4,6.7-5.1,10.5c-0.8,1.8-1.4,3.2-2,4.3
			c-2.8,1-5.3,2-7.9,3.2c-3.2,1.4-8.9,4.5-11.9,6.5c-1.4,0.8-3,2.8-3.6,3.8c-0.6,1-0.8,1.8-0.4,2.4c0.2,0.6,0.8,1,2,1.2
			c1,0.2,2.4,0,4-0.6c1.8-0.6,6.9-2,9.1-2.6c1-0.2,2-0.6,3.2-0.8c-1.6,3.8-3.2,7.5-4.3,10.9c-1.6,4.2-3.2,8.3-4.3,12.5
			c-5.9,17.8-12.3,24.7-14.2,26.5c-0.2,0.2-0.4,0.4-0.6,0.6c2.6-4.3,4.2-9.3,4.9-14.8c0.8-5.5,0-11.3-2-17.2
			c-0.6-1.6-1.2-3.4-1.8-4.9c-0.6-1.6-1.2-3.2-1.6-4.5c-0.4-1.4-2.8-15.4-4.3-17c-1.6-1.6-3.2-2.6-5.1-3.2c-1.8-0.4-3.4,0.4-4.5,2.6
			c-1.8,3.2-3.8,6.5-5.9,9.9c-2.2,3.6-4.3,6.9-6.5,10.7c-2.2,3.6-4.5,7.3-6.7,11.1c-1.8,3-3.4,5.7-4.9,8.7
			c-2.4,3.8-7.3,10.3-12.5,11.1c1.8-3,3.4-5.7,4.7-8.7s2.6-5.7,3.4-8.3c2-5.7,3-10.3,2.6-13.8c-0.4-3.6-1.2-6.1-2.6-8.1
			s-3.2-3.2-5.3-4c-5.1-1.2-10.7,1.2-13.4,3c-2.6,1.8-4.9,4-6.9,6.5c-2,2.6-3.6,5.5-4.7,8.7c-1.2,3.2-1.8,6.3-2,9.7
			c-0.2,3.2,0.4,6.3,1.4,9.3c1.2,3.6,2.8,7.1,2.8,7.1s-4.3,6.1-6.5,8.3c-2.4,2.2-5.1,3.2-7.3,3.2c-1.6,0-2.6-0.8-3-2.6s-0.6-4,0-6.9
			c0.4-2.8,1.2-5.9,2.4-9.7c1-3.6,2.4-7.3,3.8-10.9c1.4-3.8,3.2-7.3,4.7-10.9c1.8-3.6,3.4-6.5,5.1-9.1c1-1.6,1.4-3.2,0.8-4.3
			c-0.4-1.2-1.4-2-2.6-2.4s-2.6-0.2-4.3,0.6c-1.6,0.8-3.2,2.4-4.5,4.7c-1,1.6-2,3.6-3.2,5.9c-1.2,2.4-2.4,4.9-3.8,7.9
			c-1.2,2.8-2.4,5.7-3.6,8.9c-1.2,3.2-2.2,6.1-3,9.3c-1.2,2.8-2.6,5.3-4,8.1c-1.4,2.6-2.8,4.9-4.3,6.9c-1.4,2-3,3.4-4.5,4.3
			c-1.6,1-3.2,1.2-4.5,0.8c-1.2-0.4-1.6-1.4-1.4-2.8c0.2-1.6,0.8-3.4,1.8-5.7c1-2.2,2.4-4.7,4-7.7c1.6-2.8,13.6-25.3,15-28.1
			c0.6-1.2,0.8-2.6,0.6-4.2c-0.4-1.6-1-3-2-4.3s-1.2-1.6-2.6-2.8c-1.4-1.2-2.8-2-4.3-2.4c-1.4-0.4-2.8-0.4-4.2,0
			c-1.4,0.4-2.4,1.4-3.2,3c-2.2,4.5-4.5,9.3-6.5,13.8c-2.2,4.7-4.2,9.3-5.7,13.8c-0.4,1.4-2,4.2-2.4,5.1c-0.8,2-2,4.2-3.8,6.7
			c-1.8,2.6-4,5.1-6.5,7.5c-2.8,2.4-5.9,4.3-9.5,5.9c-3.6,1.6-7.7,2.4-12.3,2.4c-2,0-3.8-0.4-4.7-1.4c-1.2-1-2-2.2-2.2-3.8
			c-0.4-1.6-0.4-3.6,0-5.7c0.4-2.2,1-4.3,1.8-6.7c2.2,0.4,4.9,0.6,7.9,0.6c3.2,0,6.7-0.8,10.9-2.4c3.2-1.2,6.1-3,8.9-5.3
			s5.1-4.9,7.1-7.9c2-3,3.4-5.9,4.2-9.1c0.8-3.2,0.8-5.9,0-8.5c-0.8-2.6-2.4-4.5-4.9-6.3c-2.6-1.6-6.1-2.4-10.9-2.4
			c-7.3,0-13.6,1.6-19.2,4.9s-10.1,7.3-13.4,12.5c-5.3,7.9-7.9,18.2-8.3,18.8c-0.8,2-1.8,4.2-3.2,6.5c-1.4,2.4-2.8,4.7-4.3,6.9
			c-1.6,2.2-3.4,4-5.3,5.5c-1.8,1.6-3.8,2.4-5.7,2.6c-1.4,0.2-2-0.2-2-1.4s0.4-2.6,1.2-4.3c0.8-1.8,2-4,3.2-6.3
			c1.4-2.4,2.8-4.7,4.2-7.1s2.6-4.7,3.8-6.9c1.2-2.2,2-4.2,2.4-5.7c0.4-1.2,0.4-2.4,0.2-3.6c-0.2-1.2-0.8-2.4-1.4-3.4
			c-0.6-1-1.4-2-2.4-2.8c-1-0.8-2-1.4-3.2-2c-2.6-1.8-4.5-3.4-6.3-4.5c-1.8-1.2-3.2-2.2-4-3.2c-1-1-1.4-2.2-1.6-3.4
			c0-1.2,0.4-2.8,1.4-4.5c0.8-1.8,1-3.2,0.4-4.3c-0.4-1.2-1.2-2-2.4-2.4c-1-0.4-2.2-0.2-3.6,0.6c-1.4,0.8-2.4,2-3,4.2
			c-1,2.8-1.4,5.1-1.4,7.3c0,0.2-0.4,1.2-1,2.6c-0.6,1.4-3.2,8.5-4.2,11.1c-1,2.4-2,4.7-3,6.9c-1,2.2-2,4.3-2.8,6.3
			c-0.8,2-1.6,3.4-2.2,4.5c-0.8,1.6-1.2,3-0.8,4.3c0.4,1.2,1,2.2,2,2.8c1,0.6,2,0.6,3.2,0c1.2-0.6,2.2-1.8,3.2-3.8
			c0.6-1.4,1.4-3.4,2.4-5.5c1-2.4,4.3-11.7,5.3-14.2c1-2.6,2-4.5,2.6-6.3c1.4,1.2,2.4,2.6,3.4,3.8c1,1.2,1.2,3,0.6,5.1v0.2
			c-0.8,2.4-1.8,4.9-3,8.1c-1,3.2-2,6.3-2.8,9.7c-0.8,3.4-1.4,6.7-1.6,10.1c-0.4,3.4-0.2,6.1,0.4,8.9c0.6,2.6,1.8,4.7,3.4,6.3
			c1.6,1.6,4.2,2.4,7.3,2.4c3.6,0,6.9-1,10.1-3.2c3.2-2,5.7-4.5,8.1-7.5c1.4-1.6,2.6-3.4,3.8-5.1c1.2,4.2,3.6,7.7,6.7,10.7
			c3.8,3.4,8.9,4.9,15.2,4.9c5.5,0,10.5-1,15-3c4.5-2,8.3-4.5,11.7-7.3c0.8-0.8,1.8-1.6,2.6-2.4c0,0.2,0,0.4,0,0.8
			c0.2,3.2,1,5.9,2.4,8.1c1.4,2.2,3.6,3.6,6.7,4.2c4,0.8,7.5,0,10.7-2.4c3.2-2.4,6.1-5.5,8.5-9.5c0.2,3.6,1.4,6.3,3.2,8.5
			c2,2.2,4.9,3.2,9.1,3.2c6.3,0,12.3-1.4,17-4.2c4.7-2.8,8.9-6.1,12.5-10.3c3.6,0.6,6.7,0.6,9.9,0c1.8-0.4,3.6-1,5.1-1.6
			c0.4,2,1,4,1.8,5.7c1.4,3,3.2,5.3,5.7,7.3c7.1,5.7,19.6,2.6,24.1,1.2c4.5-1.4,8.5-3.6,12.3-6.1c2.8-2,5.3-4.2,7.7-6.5
			c0,0.8,0.2,1.6,0.2,2.4c0.4,3.6,1.6,6.3,3.4,8.3c1.8,2.2,4.5,3.4,8.1,3.6c3.6,0.2,6.9-0.6,10.1-2.6c3-2,5.7-4.5,8.1-7.5
			c1.4-1.8,2.8-3.6,3.8-5.3c1.2,4.2,3.6,7.5,6.7,10.5c3.8,3.4,8.9,4.9,15.2,4.9c5.5,0,10.5-1,15-3c4.5-2,8.3-4.5,11.7-7.3
			c3.4-3,5.9-5.9,8.1-9.1c1.8-2.6,3-4.9,4-6.9c0.2-0.4,0.4-0.8,0.6-1.2c0.6-1.4,1.4-3.4,2.4-5.5c1-2.4,2-4.7,3-7.3
			c1-2.6,2-5.1,3.2-7.7c1-2.6,2-4.5,2.6-6.3c1.4,1.2,2.4,2.6,3.4,3.8c1,1.2,1.2,3,0.6,5.1v0.2c-0.8,2.4-1.8,4.9-3,8.1
			c-1,3.2-2,6.3-2.8,9.7s-1.4,6.7-1.6,10.1c-0.4,3.4-0.2,6.1,0.4,8.9c0.6,2.6,1.8,4.7,3.4,6.3c1.6,1.6,4.2,2.4,7.3,2.4
			c3.6,0,6.9-1,10.1-3.2c3.2-2,5.7-4.5,8.1-7.5c0.4-0.6,1-1.2,1.4-1.8c0.2,0.6,0.6,1.4,0.8,2c1.4,3,3.4,5.1,5.7,7.3
			c6.3,5.3,15.4,3.8,20.9,2.2C503.2,536.3,508.4,520.9,502.4,497.4"/>
	</g>
	<path fill="#FFFFFF" d="M212.7,378.2L212.7,378.2L212.7,378.2"/>
	<path fill="#FFFFFF" d="M209.1,379.2h0.2C209.3,379.2,209.1,379.2,209.1,379.2"/>
	<path fill="#FFFFFF" d="M210.5,379c0.2,0,0.2,0,0.4,0C210.7,378.8,210.5,379,210.5,379"/>
	<path fill="#FFFFFF" d="M211.7,378.6h0.2C211.7,378.6,211.7,378.6,211.7,378.6"/>
	<polyline fill="#FFFFFF" points="258.4,381 258.4,381 258.4,381 	"/>
	<path fill="#FFFFFF" d="M260.1,382.4L260.1,382.4L260.1,382.4"/>
	<path fill="#FFFFFF" d="M204,380.4c0.2,0,0.2,0,0.4,0C204.2,380.2,204,380.4,204,380.4"/>
	<path fill="#FFFFFF" d="M199.1,381.4c0.2,0,0.4,0,0.4,0C199.5,381.4,199.3,381.4,199.1,381.4"/>
	<path fill="#FFFFFF" d="M202,380.6c0.2,0,0.2,0,0.4,0C202.2,380.6,202,380.6,202,380.6"/>
	<path fill="#FFFFFF" d="M261.9,383.6L261.9,383.6L261.9,383.6"/>
	<path fill="#FFFFFF" d="M205.6,380c0.2,0,0.4,0,0.6,0C206,380,205.8,380,205.6,380"/>
	<path fill="#FFFFFF" d="M207.4,379.6c0.2,0,0.2,0,0.4,0C207.6,379.6,207.4,379.6,207.4,379.6"/>
	<path fill="#FFFFFF" d="M200.6,381.2c0.2,0,0.4,0,0.6,0C201,381.2,200.8,381.2,200.6,381.2"/>
	<path fill="#FFFFFF" d="M200.3,407.3c0-0.2,0-0.8,0.2-1.4C200.3,406.5,200.3,407.1,200.3,407.3"/>
	<path fill="#FFFFFF" d="M213.7,377.5L213.7,377.5L213.7,377.5"/>
	<path fill="#FFFFFF" d="M200.6,405.1c0.2-0.8,0.6-1.6,1.4-2.4C201.2,403.5,200.8,404.5,200.6,405.1"/>
	<path fill="#FFFFFF" d="M263.5,384.4c0.4,0.2,0.8,0.4,1.2,0.6C264.3,385,263.9,384.8,263.5,384.4"/>
	<path fill="#FFFFFF" d="M227.5,401c0-0.2-0.2-0.6-0.4-0.8c0-0.2-0.2-0.4-0.4-0.4c0.2,0.2,0.2,0.2,0.4,0.4
		C227.3,400.4,227.5,400.6,227.5,401"/>
	<path fill="#FFFFFF" d="M244.7,445.2c-0.2,0-0.4,0.2-0.8,0.2C244.3,445.4,244.5,445.4,244.7,445.2"/>
	<path fill="#FFFFFF" d="M174,388.1c0,0.2,0.2,0.6,0.8,0.6C174.2,388.5,174,388.3,174,388.1"/>
	<path fill="#FFFFFF" d="M265.9,386c0.2,0.2,0.6,0.6,0.6,0.8C266.5,386.5,266.3,386.3,265.9,386"/>
	<path fill="#FFFFFF" d="M264.9,385.2c0.4,0.2,0.6,0.4,1,0.8C265.7,385.8,265.3,385.4,264.9,385.2"/>
	<path fill="#FFFFFF" d="M256.6,379.2C256.6,379.2,256.4,379.2,256.6,379.2C256.4,379.2,256.6,379.2,256.6,379.2"/>
	<path fill="#FFFFFF" d="M213.5,377.7C213.3,377.8,213.3,377.8,213.5,377.7C213.3,377.8,213.3,377.8,213.5,377.7"/>
	<path fill="#FFFFFF" d="M194.5,381.8c0.2,0,0.2,0,0.4,0C194.7,381.8,194.5,381.8,194.5,381.8"/>
	<path fill="#FFFFFF" d="M197.5,381.6L197.5,381.6L197.5,381.6"/>
	<path fill="#FFFFFF" d="M195.7,381.8c0.2,0,0.2,0,0.4,0C195.9,381.8,195.9,381.8,195.7,381.8"/>
	<path fill="#FFFFFF" d="M191.8,389.1c-1.2-0.2-2.8-0.2-4.5-0.4C189,388.7,190.6,388.9,191.8,389.1"/>
	<path fill="#FFFFFF" d="M203,360.5c0.2,0,0.6,0,1,0l0,0C203.6,360.5,203.2,360.5,203,360.5z"/>
	<g>
		<path fill="none" d="M350.5,408.1v-11.9c0-1.8-0.2-2.8-0.4-3.4c0-0.2-0.6-1-1.6-1c-2,0-2,6.1-2,6.1s0,5.9,0,14.6
			C347.7,410.9,348.9,409.5,350.5,408.1z"/>
		<path fill="none" d="M243.9,399.4c-3.2,0-6.7,6.7-6.9,7.3c-2.8,8.1-0.6,14,1.2,17.2c0.8,1.2,1.4,2.2,2.2,3.8
			c0.2,0.6,0.6,1.2,0.8,2c0.6,1.6,0.8,4.2,0.8,6.7c0.2,2.6,0.2,4.9,0.2,6.1c0,0.4,0,0.6,0.2,0.8c0.2,0.6,0.2,0.8,0.4,1.2
			c0.4,0.4,0.6,0.6,1,0.6c0.2,0,0.6,0,0.8-0.2c0.6-0.2,1-0.4,1-2.4c0-2.2,0-6.7,0-11.7c0-2,0-4,0-6.1c0-3.2,0-6.1,0-8.9
			c0-1.8,0-3.6,0-4.9c0-2.8,0-4.5,0-4.5V402C245.9,402.2,245.9,399.4,243.9,399.4z"/>
		<path fill="none" d="M268.6,404.9c2.8,0,2.6-5.5-0.2-5.5h-13.6c-4.5,0-3.6,6.1,0.8,6.1C259.9,405.3,262.9,404.9,268.6,404.9z"/>
		<path fill="none" d="M227.5,400.2c0-0.2-0.2-0.4-0.4-0.4c-0.4-0.4-1.2-0.4-1.6-0.4H207c-3.2,0.6-4,2.6-4.7,3.4
			c-0.6,0.8-1,1.6-1.2,2.4c0,0.2-0.2,0.4-0.2,0.6c-0.2,0.6-0.2,1.2-0.2,1.4v0.2l0.2,10.7l0,0c-0.2,1.4-0.2,13.6,0.4,14.6
			c0.4,0.6,1,1,1.4,1.2c1.4,0.8,3,0.6,4.2-0.6c1.2-1.2,1.4-3.2,1.6-4.7c0.2-0.8,0.4-1.4,0.4-2c0.8-2,1.6-4.9,2.8-7.9
			c0.4-1,0.8-2,1.4-3.2c0.8-1.6,1.6-3,2.8-4.3c0.8-0.8,1.4-1.6,2.4-2.4c1.2-1,2.8-1.8,4.3-2.2c2.6-1,3.2-1.4,4.5-2.6
			c0.8-1.2,1-2.2,0.8-3C227.7,400.8,227.7,400.4,227.5,400.2z"/>
		<path fill="none" d="M361.3,402.6l-0.2-14.8l0.2-6.3c0,0-0.2-2.4-1-3.2c-1.2-1.6-3.4-3.6-6.3-1.6c-3.4,2.4-1.2,6.7,0.4,9.3
			c1.6,2.4,2,5.1,2,5.1v13C358,403.5,359.5,402.9,361.3,402.6z"/>
		<path fill="none" d="M361.1,360.3c-3-0.6-7.5-0.8-11.5-1h-17.4c0,0-1.6,0.2-1.2-1.8c0.6-4.5,0.2-8.9-0.4-12.5
			c-0.2-1-0.4-2.2-0.8-3.6c-1-4.2-2.4-6.7-2.4-6.7l0.2,0.2c-7.1-14.8-24.9-22.1-24.9-22.1l-1-3.2v-0.2c-5.3-19.8-28.7-16-29.1-16.2
			c-0.2,0-13.6-19.8-39.9-5.1c-0.8,0.4-1.6,0.8-2.2,1c-24.1-2.8-33,6.5-33.6,6.7c-0.2,0.2-0.6,0.2-0.8,0.2
			c-19,1.4-19.8,24.3-19.8,24.3s-13.8,2.8-15.4,19.6h-0.2c0,0.4-0.2,0.6-0.2,0.6c-10.3,2.4-13.8,9.7-13,17.8
			c1.8,16.4-9.1,25.5-6.3,40.5c1.6,8.3,16,12.1,16,12.1c0,4.5,0,21.3,0.2,39.1c2.4-0.8,4.7-1.4,7.1-1.8v-35.4h0.8h2
			c3.4,0,3,4.7,3,4.7v30.2c2-0.2,3.8-0.2,5.7-0.2c7.3,0,13.6,1.4,18.8,4v-42.7c0-6.9-3.2-9.5-6.3-9.5h-15c-1,0-1-1-1-1v-4
			c0,0,0-1,1-1h5.1c4.9,0,16-1.8,16-3.2c0-0.4-1.2-0.8-3-1.2c-1.2-0.2-2.8-0.2-4.5-0.4c-2.6-0.2-5.5-0.2-8.3-0.2h-4.2
			c-0.4,0-0.6-0.2-0.8-0.6c0-0.2,0-0.6,0-0.6v-4.2c0,0,0.4-1.2,1.2-1.2s12.1-0.2,18.4-0.2c0.4,0,0.6,0,1,0c0.2,0,0.2,0,0.4,0
			s0.6,0,1,0c0.2,0,0.2,0,0.4,0c0.4,0,0.8,0,1.2-0.2h0.2c0.6,0,1-0.2,1.6-0.2c0.2,0,0.4,0,0.4,0c0.4,0,0.8,0,1.2-0.2
			c0.2,0,0.4,0,0.6,0c0.4,0,1-0.2,1.4-0.2c0.2,0,0.2,0,0.2,0c0.6,0,1.2-0.2,1.6-0.2c0.2,0,0.2,0,0.4,0c0.4,0,0.8-0.2,1.2-0.2
			c0.2,0,0.4,0,0.6,0c0.4,0,0.8-0.2,1.2-0.2c0.2,0,0.2,0,0.4,0c0.6-0.2,1-0.2,1.4-0.4h0.2c0.4,0,0.8-0.2,1-0.2s0.2,0,0.4,0
			c0.4,0,0.6-0.2,0.8-0.2h0.2c0.4-0.2,0.6-0.2,0.8-0.4l0,0c0.2,0,0.4-0.2,0.4-0.2s0,0,0.2,0l0.2-0.2l0,0c0-0.2,0-0.2-0.2-0.4l0,0
			l0,0c-1-1-6.9-1.6-22.1-1.6c-12.5,0-14.6,0-15,0s-0.6,0-1,0c-0.8,0-1.2-0.8-1.2-1.2v-6.3c0,0,0.6-1.4,1.4-1.2
			c2.2,0.4,9.1,1.8,12.3,1.2c5.5-1,12.3-7.1,14.2-7.3c0.4,0,1.6,0,1.8,0c7.7,0,39.1,0.2,39.1,0.2c1.6,0.6,3,1.4,4.5,1.8
			c0.4,3,4,9.7,4.9,11.9c0.4,1,1,1.8,1.4,2.6l0,0c0.6,0.8,1,1.6,1.6,2.2l0.2,0.2c0.6,0.6,1.2,1.2,1.8,1.8l0,0c0.6,0.6,1.2,1,1.8,1.4
			l0,0c0.6,0.4,1.2,0.8,1.6,1c0,0,0,0,0.2,0c0.6,0.4,1,0.6,1.6,0.8c0.4,0.2,0.8,0.4,1.2,0.6c0,0,0.2,0,0.2,0.2
			c0.4,0.2,0.6,0.4,1,0.6l0,0c0.2,0.2,0.6,0.6,0.6,0.8c0.6,1.2,0.8,2,1.2,2.8c0.4,1,0.8,2,2.2,3c0.4,0.2,0.6,0.4,1.2,0.8
			c3.4,2,3.4,5.9,3.4,5.9s0.2,3.2,0.8,4.5c0.8,2,2,4,2.2,4.3c1,3,4.2,13.2,4,14.6c-0.4,6.3-2.4,8.7-4,10.1c-1.2,1.2-2.2,2.4-3.2,3.8
			c-1,1.4-1.8,2.8-2.2,4c-1.2,3-2.2,6.1-2.8,9.1c0.2,0,0.4,0,0.8,0.2l1.4,0.4c1.8,0.6,3.6,1.4,5.3,2.4c1.8-6.5,4.2-11.9,5.7-13.8
			c1.2-1.6,4.2-4.2,5.7-7.7c2-4.9,5.7-5.1,6.9-5.7c12.8-7.7,10.5-17.6,11.9-19.6c1.4-1.8,2-0.8,2-0.8s0,19.2,0.2,33.2
			c1.2,0.2,2.2,0.2,3.4,0.6c1.8,0.4,3.6,1.2,5.1,1.8v-41.3c0,0,1-2,1.8-3.8c0.4-0.8,11.1-2,11.1,8.5c0,7.1,0,26.5,0,33.8
			c0.4-0.2,0.8-0.2,1.2-0.4c0.6-0.2,1.4-0.4,2-0.6c0.4-0.6,0.6-1.4,1-2c1.4-2.8,2.6-5.1,3.8-7.5c0-16,0-28.3,0-28.5
			c0-7.3-5.3-12.3-11.9-12.3c-0.8,0-1.6,0-2.2,0h-3c0.8-2.6,0.6-5.5,0.6-8.3c0-4.2-0.6-7.9-2.2-11.5c1-0.8,2.2-0.8,2.2-0.8
			s32.6,0,32.8,0c14,0,14.6,13.6,14.6,13.6s0,8.3,0,9.1v13c2.4,0.2,4.7,0.8,7.1,1.8c0-3.4,0.2-8.9,0.2-17.8
			C376.9,362.6,362.7,360.5,361.1,360.3z"/>
		<path fill="#FFFFFF" d="M415.9,429.6c0-0.2-0.6-3-1.2-4.9c-6.1-29.6-20.4-56.9-41.1-79.1c-19.2-20.4-42.9-35-69-43.3
			c-8.3-16.2-24.3-14.8-30.4-14.6c-2.4-3-18.8-20-44.7-4.3c-0.8,0.4-1.2,0.6-1,0.6c-21.7-2.6-30.6,4.3-33.6,6.5
			c-0.2,0-0.2,0.2-0.2,0.2c-18.8,3.2-22.1,17.6-22.7,23.7l-0.2,1.6c-4.9,1.4-13.8,7.3-16.4,17.4c-0.2,0.2-0.4,0.2-0.4,0.4
			c-4.2,1.2-10.5,4.3-13.8,12.5c-0.6,0.6-1.4,1.2-2,2c-6.1,6.3-11.5,13.2-16.4,20.6l-0.8,0.8l-0.2,0.6c-10.1,15.6-17.2,33-21.5,52.4
			l-0.4,2.2l1.6,1.6c1.8,1.8,3.2,3.4,4.3,4.9l0.4,0.6c2.6,4,4.2,8.3,4.9,12.8l0.4,2.6l2.6,0.6c0.6,0.2,1,0.2,1.6,0.4
			c4.7,1.6,8.3,4.9,10.3,9.7c1,2.6,1.4,5.3,1,8.3l-0.2,2.4l2,1.4c0.6,0.4,1.4,1,2.2,1.6l0.4,0.2c0.8,0.4,1.6,1,2.4,1.4l2.8,1.8
			l2.2-2.4c3.6-4,7.9-7.5,12.8-10.5c7.3-4.3,16-6.7,25.5-6.7c7.1,0,12.6,1.4,17.2,4.2l2.4,1.4l2.2-1.8c1.8-1.4,3.8-2.6,6.1-3.2
			c3.6-1,7.7-1,11.3,0.2c2.6,0.8,4.9,2,7.3,3.8l2.2,1.6l2.2-1.6c1-0.8,2.2-1.4,3.4-2c2.2-1,4.2-1.6,6.3-1.8c0.4,0,0.6,0,1,0
			c0.6,0,1.4,0,2,0c0.4,0,0.8,0,1.4,0.2c0.8,0.2,1.6,0.2,2.4,0.4c1.6,0.4,3,1.2,4.3,2l1.6,1l1.8-0.6c5.7-2.2,11.5-2.6,16.6-1.4
			l1,0.2c4.2,1.4,8.1,4.2,10.9,7.7l3.4,4.3l3.4-5.5c2-3.2,4-6.5,5.7-9.5c3.4-5.7,8.5-8.9,14.4-8.9c1.2,0,2.6,0.2,3.8,0.4
			c2.6,0.6,5.1,1.8,7.3,3.4l1.8,1.2l2-1c0.2-0.2,0.4-0.2,0.8-0.4c3.8-1.8,7.5-3.4,11.3-4.5c1.2-0.4,2.4-0.6,3.6-1l1.6-0.4l0.8-1.6
			c0.6-1.2,1.2-2.4,1.8-3.6c1.6-3.4,3.2-6.3,4.5-8.9c1.6-3,2.6-5.1,3.6-6.7c0.8-1.6,1.6-3,2.2-4.2c2.6-4.5,6.5-7.7,11.5-8.7
			c4.2-0.8,7.9-0.4,12.1,1.6c2.6,1.2,5.1,3,7.5,5.1c2.4,2.2,4.3,4.5,5.9,6.9c0.8,1.2,2,3.4,2.4,4.3c0,0.2,0.2,0.2,0.2,0.4l0.2,0.4
			l0.2,0.2c4.7,9.5,16.6,7.1,22.3,4.5l2.8-1.2L415.9,429.6z M254.8,399.4h13.6c2.8,0,3,5.5,0.2,5.5c-5.7,0-8.7,0.4-13.2,0.6
			C251.2,405.7,250.3,399.4,254.8,399.4z M245.9,406.3c0,0,0,1.8,0,4.5c0,1.4,0,3.2,0,4.9c0,2.8,0,5.7,0,8.9c0,2,0,4.2,0,6.1
			c0,4.9,0,12.6,0,14.8c0,2-0.4,2.2-1,2.4c-0.2,0-0.4,0.2-0.8,0.2c-0.4,0-0.8-0.2-1-0.6c-0.2-0.2-0.4-4-0.4-4.3c0-0.2,0-0.6-0.2-0.8
			c-0.2-1.2-0.2-3.6-0.2-6.1c-0.2-2.6-0.4-5.1-0.8-6.7c-0.2-0.8-0.6-1.4-0.8-2c-0.8-1.8-1.4-2.6-2.2-3.8c-2-3.2-4-8.9-1.2-17.2
			c0.2-0.6,3.8-7.3,6.9-7.3c1.8,0,2,2.6,2,2.6v4.3H245.9z M227.1,403.9c-1.4,1.4-2,1.6-4.5,2.6c-1.6,0.4-3.2,1.2-4.3,2.2
			c-0.8,0.6-1.6,1.6-2.4,2.4c-1,1.4-2,2.8-2.8,4.3c-0.6,1-1,2-1.4,3.2c-1.2,3.2-2.2,6.1-2.8,7.9c0,0.6-0.2,1.2-0.4,2
			c-0.4,1.6-0.6,3.6-1.6,4.7c-1.2,1.2-2.8,1.4-4.2,0.6c-0.6-0.2-1-0.6-1.4-1.2c-0.8-1.2-0.6-13.4-0.4-14.6l0,0l-0.2-10.7
			c0,0,0,0,0-0.2c0-0.2,0-0.6,0.2-1.4c0-0.2,0.2-0.4,0.2-0.6c0.2-0.8,0.6-1.6,1.2-2.4c0.6-0.8,1.6-2.8,4.7-3.4h18.6
			c0.4,0,1,0,1.6,0.4c0.2,0.2,0.2,0.2,0.4,0.4c0.2,0.2,0.2,0.6,0.2,0.8C228.1,401.8,227.9,402.7,227.1,403.9z M348.5,391.9
			c1,0,1.4,0.8,1.6,1c0.2,0.4,0.4,1.6,0.4,3.4v11.9c-1.4,1.4-2.8,2.8-4,4.3c0-8.7,0-14.6,0-14.6S346.5,391.9,348.5,391.9z
			 M354.6,386.1c-1.6-2.6-3.8-6.9-0.4-9.3c3-2.2,5.1-0.2,6.3,1.6c0.6,1,1,3.2,1,3.2l-0.2,6.3l0.2,14.8c-1.8,0.4-3.4,1-4.9,1.6v-13
			C356.4,391.3,356.2,388.5,354.6,386.1z M376.3,404.1c-2.4-1-4.7-1.6-7.1-1.8v-13c0-0.8,0-9.1,0-9.1s-0.6-13.6-14.6-13.6
			c-0.2,0-32.8,0-32.8,0s-1.2,0-2.2,0.8c1.6,3.6,2.2,7.3,2.2,11.5c0,2.8,0.2,5.7-0.6,8.3h3c0.8,0,1.4,0,2.2,0
			c6.5,0,11.9,4.9,11.9,12.3c0,0.2,0,12.5,0,28.5c-1.2,2.4-2.4,4.7-3.8,7.5c-0.4,0.6-0.6,1.4-1,2c-0.6,0.2-1.4,0.4-2,0.6
			c-0.4,0.2-0.8,0.2-1.2,0.4c0-7.3,0-26.7,0-33.8c0-10.3-10.9-9.3-11.1-8.5c-0.8,1.8-1.8,3.8-1.8,3.8v41.3c-1.8-0.8-3.4-1.4-5.1-1.8
			c-1.2-0.2-2.2-0.4-3.4-0.6c0-14-0.2-33.2-0.2-33.2s-0.6-1.2-2,0.8s1,11.7-11.9,19.6c-1.2,0.6-4.9,1-6.9,5.7
			c-1.6,3.6-4.5,6.3-5.7,7.7c-1.6,2-4,7.3-5.7,13.8c-1.8-1-3.4-1.8-5.3-2.4l-1.4-0.4c-0.2,0-0.4,0-0.8-0.2c0.6-3,1.6-6.1,2.8-9.1
			c0.6-1.2,1.4-2.6,2.2-4c1-1.4,2-2.6,3.2-3.8c1.6-1.6,3.6-4,4-10.1c0-1.2-3-11.7-4-14.6c-0.2-0.4-1.4-2.4-2.2-4.3
			c-0.6-1.4-0.8-4.5-0.8-4.5s0-4-3.4-5.9c-0.4-0.2-0.8-0.4-1.2-0.8c-1.2-1-1.8-1.8-2.2-3c-0.4-0.8-0.6-1.8-1.2-2.8
			c-0.2-0.4-0.4-0.6-0.6-0.8l0,0c-0.2-0.2-0.6-0.4-1-0.6c0,0-0.2,0-0.2-0.2c-0.4-0.2-0.8-0.4-1.2-0.6c-0.4-0.2-1-0.6-1.6-0.8
			c0,0,0,0-0.2,0c-0.6-0.4-1-0.6-1.6-1l0,0c-0.6-0.4-1.2-0.8-1.8-1.4l0,0c-0.6-0.6-1.2-1-1.8-1.8l-0.2-0.2c-0.6-0.6-1-1.4-1.6-2.2
			l0,0c-0.6-0.8-1-1.6-1.4-2.6c-1-2.2-4.5-9.1-4.9-11.9c-1.6-0.4-3.2-1-4.5-1.8c0,0-31.4-0.2-39.1-0.2c-0.2,0.2-1.4,0-1.8,0
			c-2,0.2-8.7,6.3-14.2,7.3c-3.2,0.6-10.1-0.8-12.3-1.2c-0.8-0.2-1.4,1.2-1.4,1.2v6.3c0,0.4,0.4,1.2,1.2,1.2c0.2,0,0.6,0,1,0
			s2.6,0,15,0c15.2,0,21.1,0.8,22.1,1.6l0,0l0,0c0.2,0.2,0.2,0.2,0.2,0.4l0,0c0,0,0,0.2-0.2,0.2c0,0,0,0-0.2,0
			c-0.2,0-0.2,0.2-0.4,0.2l0,0c-0.2,0.2-0.6,0.2-0.8,0.4h-0.2c-0.2,0-0.6,0.2-0.8,0.2c-0.2,0-0.2,0-0.4,0c-0.4,0-0.6,0.2-1,0.2h-0.2
			c-0.4,0.2-1,0.2-1.4,0.4c-0.2,0-0.2,0-0.4,0c-0.4,0-0.8,0.2-1.2,0.2c-0.2,0-0.4,0-0.6,0c-0.4,0-0.8,0.2-1.2,0.2
			c-0.2,0-0.2,0-0.4,0c-0.6,0-1.2,0.2-1.6,0.2c-0.2,0-0.2,0-0.2,0c-0.4,0-1,0.2-1.4,0.2c-0.2,0-0.4,0-0.6,0c-0.4,0-0.8,0.2-1.2,0.2
			c-0.2,0-0.4,0-0.4,0c-0.6,0-1,0.2-1.6,0.2h-0.2c-0.4,0-0.8,0-1.2,0.2c-0.2,0-0.2,0-0.4,0c-0.4,0-0.6,0-1,0c-0.2,0-0.2,0-0.4,0
			c-0.4,0-0.8,0-1,0c-6.3,0-17.4,0.2-18.4,0.2c-0.8,0-1.2,1.2-1.2,1.2v4.2c0,0,0,0.2,0,0.6c0,0.2,0.4,0.6,0.8,0.6h4.2
			c3,0,5.7,0,8.3,0.2c1.8,0,3.4,0.2,4.5,0.4c1.8,0.2,3,0.6,3,1.2c0,1.4-11.1,3.2-16,3.2h-5.1c-0.8,0-1,1-1,1v4c0,0,0,1,1,1h15
			c3.2,0,6.3,2.6,6.3,9.5V451c-5.3-2.8-11.5-4-18.8-4c-2,0-4,0.2-5.7,0.2V417c0,0,0.4-4.7-3-4.7h-2h-0.8V448c-2.4,0.4-4.9,1-7.1,1.8
			c0-17.8-0.2-34.6-0.2-39.1c0,0-14.4-3.8-16-12.1c-2.8-15.2,7.9-24.1,6.3-40.5c-0.8-8.1,2.6-15.4,13-17.8c0,0,0-0.2,0.2-0.6h0.2
			c1.6-16.8,15.4-19.6,15.4-19.6s1-22.7,19.8-24.3c0.4,0,0.6-0.2,0.8-0.2c0.6-0.2,9.5-9.7,33.6-6.7c0.6-0.2,1.4-0.6,2.2-1
			c26.3-14.8,39.7,4.9,39.9,5.1c0.4,0.2,23.7-3.6,29.1,16.2v0.2l1,3.2c0,0,17.8,7.3,24.9,22.1l-0.2-0.2c0,0,1.4,2.6,2.4,6.7
			c0.2,1.2,0.6,2.4,0.8,3.6c0.6,3.6,1,7.7,0.4,12.5c-0.6,2,1.2,1.8,1.2,1.8h17.4c4,0.2,8.3,0.4,11.5,1c1.6,0.4,16,2.4,15.6,25.9
			C376.5,395,376.3,400.6,376.3,404.1z"/>
	</g>
	<path fill="#FFFFFF" d="M203.4,308.3c1.6-0.4,5.1-1.4,5.5-0.2c0.4,1-6.1,4.9-7.3,7.1c-1.8,3-2,5.7-2.4,7.3c-1,3.6-7.1,2.2-6.5-1.6
		C193.7,314.8,197.5,309.9,203.4,308.3 M166.5,394.4c0-10.5-0.2-27.7-0.2-34s6.9-4.5,9.5-2.8c4.3,3.2,10.3,4.5,14,1.8
		c2.2-1.8,6.7-3.8,8.5-5.1c1-0.8,5.1-1.4,5.1-1.4h33.8c-0.4-1.2-0.8-2.6-0.8-4c0-3.6-0.8-3-3.8-4.7c-1.8-1.2-3.8-3.4-4.5-5.3
		c-2.2-4.7-2.6-9.3-0.2-14c0.6-1.4,2-4.3,3.2-4.3s1.4,4.7,1.4,5.7c0.2,1.8,0.2,3.6,0.6,5.1c0.8,3.8,2.8,6.9,6.3,8.3
		c2.2,0.8,3.8,3.2,3.8,5.5c0.2,4,0.4,6.9,4.5,8.7c3.8,1.8,7.9,2.2,12.1,2.4c2,0,5.9,0.2,6.3,1.2c0.2,1.4-2.8,2.8-4.2,3.6
		c-1.4,0.8-3,1.4-4.9,1.6c1,5.1,3.6,11.5,10.5,14c1.4,0.6,3.6,1.6,5.1,3c1,1,2.4,3.6,2.6,4.9c0.4,2,1,4,3,5.5c4,3.2,5.9,9.3,6.5,13
		c0.2,1.6,3.4,22.5,13.6,11.3c3.4-5.3,3.8-10.7,4.2-14.6c0.2-5.3,2-4.5,4-5.7c2-1.2,4.9-4.5,4.9-5.1c0.6-1.2,1.2-2.4,1.6-3.6
		c1-2.4,0.8-5.7,1-8.1c0.4-5.1,0-11.3-4.5-14c-2.2-1.4-6.7-2.8-6.1-4c0.4-1,4.3-0.8,5.1-1c3.6,0,6.7,0.2,9.9-1
		c5.5-2,5.7-10.3,4.2-15c-3.4-10.3-12.5-20.8-22.9-23.7l0,0c-1.8-0.2-2.6-1.6-2.6-1.6l-1-4c0,0-2-11.1-12.5-14
		c-5.5-1.6-10.1-1-12.5-0.6c-1.2,0.2-2.4-0.2-3.4-1.4c-2.6-3.6-7.9-9.5-15.8-9.1c-1.8,0.2-3.2,0.2-4.5,0.4
		c-5.7,0.6-12.1,5.3-12.6,5.5c-1.8,1-3.6,1-4.9,0.8c-1-0.2-12.8-1.2-18,0c-4.9,0.4-12.8,6.3-14,6.5c-14.6,2.4-14.8,16-14.8,16
		l-0.2,5.3c0,0-0.6,1.4-1.4,1.8c-3.6,1.6-13.2,6.7-14.6,14c-1.4,5.5-0.8,6.1-2,8.5c-0.8,1.6-3,2-5.3,3c-2.2,1-4.7,3.6-4.9,7.5
		c-0.6,28.1-7.3,26.3-5.5,37.7C150.5,405.5,166.5,403.9,166.5,394.4"/>
	<path fill="#FFC627" d="M170.6,415.8c0,0,0.6-4.7-3.2-4.7h-2.2h-1v37.7c2-0.4,4.2-0.6,6.3-0.8V415.8z"/>
	<path fill="#FFC627" d="M201.8,448.8c5.1-1.6,10.5-1.4,15.6,0.2c2.6,0.8,4.9,2,7.3,3.4c0.8-0.4,1.6-0.8,2.4-1.2
		c6.1-2.8,12.3-3.4,18.2-1.6c1.6,0.4,3.2,1.2,4.7,2c6.1-2,12.8-2.6,18.8-1.4c0.6-3.8,1.4-5.3,3-8.9c0.6-1.2,1.4-2.6,2.2-4
		c1-1.4,2-2.8,3.2-3.8c1.6-1.6,3.6-4,4-10.3c0-1.4-3-11.7-4-14.6c-0.2-0.4-1.4-2.4-2.2-4.3c-0.6-1.4-0.8-4.5-0.8-4.5s0-4-3.4-5.9
		c-0.4-0.2-0.8-0.4-1.2-0.8c-1.2-1-1.8-1.8-2.2-3c-0.4-0.8-0.6-1.8-1.2-2.8c-0.2-0.4-0.4-0.6-0.6-0.8l0,0c-0.2-0.2-0.6-0.4-1-0.6
		c0,0-0.2,0-0.2-0.2c-0.4-0.2-0.8-0.4-1.2-0.6c-0.4-0.2-1-0.6-1.6-0.8c0,0,0,0-0.2,0c-0.6-0.4-1-0.6-1.6-1l0,0
		c-0.6-0.4-1.2-0.8-1.8-1.4l0,0c-0.6-0.6-1.2-1-1.8-1.8l-0.2-0.2c-0.6-0.6-1-1.4-1.6-2.2c0,0,0-0.2-0.2-0.2
		c-6.7,2.6-14.6,0.6-21.5,0.2c-6.3-0.4-12.8-0.2-19.2,0.2l0,0c0.2,0.2,0.2,0.2,0.2,0.4l0,0c0,0,0,0.2-0.2,0.2c0,0,0,0-0.2,0
		c-0.2,0-0.2,0.2-0.4,0.2l0,0c-0.2,0.2-0.6,0.2-0.8,0.4h-0.2c-0.2,0-0.6,0.2-0.8,0.2c-0.2,0-0.2,0-0.4,0c-0.4,0-0.6,0.2-1,0.2h-0.2
		c-0.4,0.2-1,0.2-1.4,0.4c-0.2,0-0.2,0-0.4,0c-0.4,0-0.8,0.2-1.2,0.2c-0.2,0-0.4,0-0.6,0c-0.4,0-0.8,0.2-1.2,0.2c-0.2,0-0.2,0-0.4,0
		c-0.6,0-1.2,0.2-1.6,0.2c-0.2,0-0.2,0-0.2,0c-0.4,0-1,0.2-1.4,0.2c-0.2,0-0.4,0-0.6,0c-0.4,0-0.8,0.2-1.2,0.2c-0.2,0-0.4,0-0.4,0
		c-0.6,0-1,0.2-1.6,0.2h-0.2c-0.4,0-0.8,0-1.2,0.2c-0.2,0-0.2,0-0.4,0c-0.4,0-0.6,0-1,0c-0.2,0-0.2,0-0.4,0c-0.4,0-0.8,0-1,0
		c-6.3,0-17.6,0.2-18.4,0.2c-0.8,0-1.2,1.2-1.2,1.2v4.2c0,0,0,0.2,0,0.6c0,0.2,0.4,0.6,0.8,0.6h4.2c3,0,5.9,0,8.5,0.2
		c1.8,0,3.4,0.2,4.5,0.4c1.8,0.2,3,0.6,3,1.2c0,1.4-11.1,3.2-16,3.2h-5.1c-0.8,0-1,1-1,1v4.2c0,0,0,1,1,1h15c3.2,0,6.3,2.6,6.3,9.5
		v42.9c0,0,0,0,0.2,0C197.1,450.6,199.5,449.6,201.8,448.8z M254.8,399.4h13.8c2.8,0,3,5.5,0.2,5.5c-5.7,0-8.7,0.4-13.2,0.6
		C251.2,405.7,250.3,399.4,254.8,399.4z M237.2,406.7c0.2-0.6,3.8-7.3,6.9-7.3c1.8,0,2,2.6,2,2.6v4.3c0,0,0,1.8,0,4.5
		c0,1.4,0,3.2,0,4.9c0,2.8,0,5.7,0,8.9c0,2,0,4.2,0,6.1c0,4.9,0,9.3,0,11.7c0,2-0.4,2.2-1,2.4c-0.2,0-0.4,0.2-0.8,0.2
		c-0.4,0-0.8-0.2-1-0.6c-0.2-0.2-0.4-0.6-0.4-1.2c0-0.2,0-0.6-0.2-0.8c-0.2-1.2-0.2-3.6-0.2-6.1c-0.2-2.6-0.4-5.1-0.8-6.7
		c-0.2-0.8-0.6-1.4-0.8-2c-0.8-1.8-1.4-2.6-2.2-3.8C236.4,420.7,234.4,415,237.2,406.7z M200.8,407.3c0-0.2,0-0.6,0.2-1.4
		c0-0.2,0.2-0.4,0.2-0.6c0.2-0.8,0.6-1.6,1.2-2.4c0.6-0.8,1.6-2.8,4.7-3.4h18.6c0.4,0,1,0,1.6,0.4c0.2,0.2,0.2,0.2,0.4,0.4
		c0.2,0.2,0.2,0.6,0.2,0.8c0.2,0.8,0.2,1.8-0.8,3c-1.4,1.4-2,1.6-4.5,2.6c-1.6,0.4-3.2,1.2-4.3,2.2c-0.8,0.6-1.6,1.6-2.4,2.4
		c-1,1.4-2,2.8-2.8,4.3c-0.6,1-1,2-1.4,3.2c-1.2,3.2-2.2,6.1-2.8,8.1c0,0.6-0.2,1.2-0.4,2c-0.4,1.6-0.6,3.6-1.8,4.7
		c-1.2,1.2-2.8,1.4-4.2,0.6c-0.6-0.2-1-0.6-1.4-1.2c-0.8-1.2-0.6-13.4-0.4-14.8l0,0L200.8,407.3
		C200.8,407.5,200.8,407.3,200.8,407.3z"/>
	<path fill="#FFC627" d="M286,451.8c4.7-8.3,12.5-12.8,21.3-12.8c0.8,0,1.6,0,2.2,0.2c0-14.2-0.2-35.6-0.2-35.6s-0.6-1.2-2,0.8
		c-1.4,2,1,11.9-12.1,19.8c-1.4,0.6-5.1,1-7.1,5.9c-1.6,3.6-4.5,6.3-5.9,7.9c-1.8,2.2-4.3,8.3-6.1,15.8c2.2,1.2,4.3,2.6,6.3,4.3
		C283.7,455.7,284.8,453.7,286,451.8z"/>
</g>
</svg>
